<svg width="29" height="7" viewBox="0 0 29 7" fill="none" xmlns="http://www.w3.org/2000/svg">
<path d="M3.25 6.3125C4.8033 6.3125 6.0625 5.0533 6.0625 3.5C6.0625 1.9467 4.8033 0.6875 3.25 0.6875C1.6967 0.6875 0.4375 1.9467 0.4375 3.5C0.4375 5.0533 1.6967 6.3125 3.25 6.3125Z" fill="#FBF2DA"/>
<path d="M14.5 6.3125C16.0533 6.3125 17.3125 5.0533 17.3125 3.5C17.3125 1.9467 16.0533 0.6875 14.5 0.6875C12.9467 0.6875 11.6875 1.9467 11.6875 3.5C11.6875 5.0533 12.9467 6.3125 14.5 6.3125Z" fill="#FBF2DA"/>
<path d="M25.75 6.3125C27.3033 6.3125 28.5625 5.0533 28.5625 3.5C28.5625 1.9467 27.3033 0.6875 25.75 0.6875C24.1967 0.6875 22.9375 1.9467 22.9375 3.5C22.9375 5.0533 24.1967 6.3125 25.75 6.3125Z" fill="#FBF2DA"/>
</svg>
